<svg width="24" height="24" viewBox="0 0 24 24" fill="none" xmlns="http://www.w3.org/2000/svg">
<mask id="mask0_137_375" style="mask-type:alpha" maskUnits="userSpaceOnUse" x="0" y="0" width="24" height="24">
<rect width="24" height="24" fill="#D9D9D9"/>
</mask>
<g mask="url(#mask0_137_375)">
<path d="M15 20C12.7667 20 10.875 19.225 9.325 17.675C7.775 16.125 7 14.2333 7 12C7 9.76667 7.775 7.875 9.325 6.325C10.875 4.775 12.7667 4 15 4C17.2333 4 19.125 4.775 20.675 6.325C22.225 7.875 23 9.76667 23 12C23 14.2333 22.225 16.125 20.675 17.675C19.125 19.225 17.2333 20 15 20ZM15.75 11.675V8.75C15.75 8.55 15.6782 8.375 15.5345 8.225C15.3907 8.075 15.2125 8 15 8C14.7875 8 14.6094 8.07083 14.4658 8.2125C14.3219 8.35417 14.25 8.53333 14.25 8.75V12C14.25 12.0928 14.2667 12.1827 14.3 12.2695C14.3333 12.3565 14.3917 12.4417 14.475 12.525L17.025 15.05C17.1717 15.2 17.3458 15.275 17.5475 15.275C17.7492 15.275 17.925 15.2013 18.075 15.054C18.225 14.9067 18.3 14.7317 18.3 14.529C18.3 14.3263 18.225 14.15 18.075 14L15.75 11.675ZM2.75 8.75C2.5375 8.75 2.35942 8.67767 2.21575 8.533C2.07192 8.3885 2 8.20933 2 7.9955C2 7.78183 2.07192 7.60417 2.21575 7.4625C2.35942 7.32083 2.5375 7.25 2.75 7.25H5.25C5.4625 7.25 5.64067 7.32233 5.7845 7.467C5.92817 7.6115 6 7.79067 6 8.0045C6 8.21817 5.92817 8.39583 5.7845 8.5375C5.64067 8.67917 5.4625 8.75 5.25 8.75H2.75ZM1.75 12.75C1.5375 12.75 1.35942 12.6777 1.21575 12.533C1.07192 12.3885 1 12.2093 1 11.9955C1 11.7818 1.07192 11.6042 1.21575 11.4625C1.35942 11.3208 1.5375 11.25 1.75 11.25H5.25C5.4625 11.25 5.64067 11.3223 5.7845 11.467C5.92817 11.6115 6 11.7907 6 12.0045C6 12.2182 5.92817 12.3958 5.7845 12.5375C5.64067 12.6792 5.4625 12.75 5.25 12.75H1.75ZM2.75 16.75C2.5375 16.75 2.35942 16.6777 2.21575 16.533C2.07192 16.3885 2 16.2093 2 15.9955C2 15.7818 2.07192 15.6042 2.21575 15.4625C2.35942 15.3208 2.5375 15.25 2.75 15.25H5.25C5.4625 15.25 5.64067 15.3223 5.7845 15.467C5.92817 15.6115 6 15.7907 6 16.0045C6 16.2182 5.92817 16.3958 5.7845 16.5375C5.64067 16.6792 5.4625 16.75 5.25 16.75H2.75Z" fill="#7C3AED"/>
</g>
</svg>
