<svg width="24" height="24" viewBox="0 0 24 24" fill="none" xmlns="http://www.w3.org/2000/svg">
<mask id="mask0_137_379" style="mask-type:alpha" maskUnits="userSpaceOnUse" x="0" y="0" width="24" height="24">
<rect width="24" height="24" fill="#D9D9D9"/>
</mask>
<g mask="url(#mask0_137_379)">
<path d="M5.603 19.975C4.78433 19.975 4.0875 19.6882 3.5125 19.1145C2.9375 18.541 2.65 17.8445 2.65 17.025H1.75C1.5375 17.025 1.35942 16.9531 1.21575 16.8092C1.07192 16.6656 1 16.4875 1 16.275V5.5C1 5.1 1.15 4.75 1.45 4.45C1.75 4.15 2.1 4 2.5 4H15.475C15.8875 4 16.2407 4.14683 16.5345 4.4405C16.8282 4.73433 16.975 5.0875 16.975 5.5V8.175H18.85C19.0875 8.175 19.3125 8.22808 19.525 8.33425C19.7375 8.44058 19.9125 8.5875 20.05 8.775L22.85 12.5C22.9 12.5625 22.9375 12.6313 22.9625 12.7063C22.9875 12.7812 23 12.8625 23 12.95V16.275C23 16.4875 22.9282 16.6656 22.7845 16.8092C22.6407 16.9531 22.4625 17.025 22.25 17.025H21.225C21.225 17.8417 20.9385 18.5375 20.3655 19.1125C19.7925 19.6875 19.0967 19.975 18.278 19.975C17.4593 19.975 16.7625 19.6882 16.1875 19.1145C15.6125 18.541 15.325 17.8445 15.325 17.025H8.55C8.55 17.8417 8.2635 18.5375 7.6905 19.1125C7.1175 19.6875 6.42167 19.975 5.603 19.975ZM5.6 18.475C6 18.475 6.34167 18.3333 6.625 18.05C6.90833 17.7667 7.05 17.425 7.05 17.025C7.05 16.625 6.90833 16.2833 6.625 16C6.34167 15.7167 6 15.575 5.6 15.575C5.2 15.575 4.85833 15.7167 4.575 16C4.29167 16.2833 4.15 16.625 4.15 17.025C4.15 17.425 4.29167 17.7667 4.575 18.05C4.85833 18.3333 5.2 18.475 5.6 18.475ZM18.275 18.475C18.675 18.475 19.0167 18.3333 19.3 18.05C19.5833 17.7667 19.725 17.425 19.725 17.025C19.725 16.625 19.5833 16.2833 19.3 16C19.0167 15.7167 18.675 15.575 18.275 15.575C17.875 15.575 17.5333 15.7167 17.25 16C16.9667 16.2833 16.825 16.625 16.825 17.025C16.825 17.425 16.9667 17.7667 17.25 18.05C17.5333 18.3333 17.875 18.475 18.275 18.475ZM16.975 13.375H21.625L18.85 9.675H16.975V13.375Z" fill="#7C3AED"/>
</g>
</svg>
