<svg width="41" height="40" viewBox="0 0 41 40" fill="none" xmlns="http://www.w3.org/2000/svg">
<path fill-rule="evenodd" clip-rule="evenodd" d="M20.5 40C31.5457 40 40.5 31.0457 40.5 20C40.5 8.95431 31.5457 0 20.5 0C9.45429 0 0.5 8.95431 0.5 20C0.5 31.0457 9.45429 40 20.5 40ZM26.7393 9.31684C27.043 8.23805 25.9961 7.60013 25.04 8.2813L11.6931 17.7896C10.6562 18.5283 10.8193 20 11.9381 20H15.4527V19.9728H22.3025L16.7212 21.9421L14.2607 30.6832C13.957 31.762 15.0038 32.3999 15.96 31.7187L29.3069 22.2105C30.3438 21.4718 30.1806 20 29.0619 20H23.7321L26.7393 9.31684Z" fill="#7C3AED"/>
</svg>
